<svg width="121" height="65" xmlns="http://www.w3.org/2000/svg"><path d="m69.701 58.138 1.43 1.307c1.054.962 1.054 2.523 0 3.485l-1.475 1.348c-1.054.963-2.76.963-3.815 0l-1.43-1.307c-1.055-.962-1.055-2.522 0-3.485l1.475-1.348c1.052-.961 2.76-.961 3.815 0Zm-11.625 0 1.407 1.307c1.035.962 1.035 2.523 0 3.485l-1.452 1.348a2.728 2.728 0 0 1-1.61.71l-.176.01h-.177a2.74 2.74 0 0 1-1.787-.72l-1.406-1.307c-1.037-.962-1.037-2.522 0-3.485l1.45-1.348c1.037-.961 2.715-.961 3.751 0ZM14.37 53.23l-.04 2.242c-.004.206-.086.328-.148.369l-6.623 5.246 6.18.115a.5.5 0 0 1 .478.503l-.034 1.811a.484.484 0 0 1-.496.484L.477 63.753A.486.486 0 0 1 0 63.25l.033-1.81a.497.497 0 0 1 .496-.484l5.469.101-5.659-5.29a.496.496 0 0 1-.196-.396l.037-2.054A.432.432 0 0 1 .917 53l5.857 5.48 6.892-5.632c.268-.2.711-.027.703.382Zm105.738-1.588c.209-.008.405.165.413.366l.082 1.871a.386.386 0 0 1-.38.396l-5.546.223.285 6.554 5.546-.221a.389.389 0 0 1 .412.365l.08 1.851c.01.2-.17.389-.38.397l-13.85.556c-.209.01-.406-.165-.414-.366l-.081-1.85a.389.389 0 0 1 .381-.398l5.776-.23-.287-6.556-5.773.231a.393.393 0 0 1-.416-.365l-.08-1.87c-.009-.201.172-.389.38-.397l13.852-.557ZM69.753 46.73l1.447 1.321c1.067.973 1.067 2.553 0 3.526l-1.493 1.365a2.832 2.832 0 0 1-1.656.718l-.182.01h-.182a2.853 2.853 0 0 1-1.84-.728L64.4 51.621c-1.067-.974-1.067-2.552 0-3.527l1.493-1.363c1.065-.975 2.793-.975 3.86 0Zm-11.6 0 1.448 1.321c1.065.973 1.065 2.553 0 3.526l-1.494 1.365a2.833 2.833 0 0 1-1.657.718l-.182.01h-.182a2.85 2.85 0 0 1-1.838-.728L52.8 51.621c-1.067-.974-1.067-2.552 0-3.527l1.493-1.363c1.067-.975 2.794-.975 3.86 0ZM3.286 42.667l13.07 3.734a.409.409 0 0 1 .268.486l-.52 1.85a.404.404 0 0 1-.482.27L2.549 45.272a.408.408 0 0 1-.267-.485l.52-1.849a.406.406 0 0 1 .484-.271Zm114.073-4.769c.812 1.93.78 3.578.147 5.363a.39.39 0 0 1-.533.24l-1.708-.663c-.21-.071-.292-.262-.203-.479a4.818 4.818 0 0 0-.097-3.41c-1.028-2.446-3.86-3.41-6.294-2.41-2.416.994-3.695 3.67-2.666 6.114.483 1.148 1.337 1.94 2.332 2.47.199.098.27.317.201.479l-.739 1.693c-.07.208-.338.273-.53.195-1.823-.773-3.112-2.172-3.829-3.872-1.606-3.82.173-8.16 4.038-9.748 3.867-1.59 8.272.208 9.88 4.028ZM15.137 26.778c1.618.952 2.303 2.792 2.013 4.672l5.895.234c.302.012.51.298.334.597l-1.093 1.833a.356.356 0 0 1-.327.187l-6.048-.418-1.156 1.938 4.487 2.638a.397.397 0 0 1 .137.527l-.958 1.608a.392.392 0 0 1-.534.134L6.24 33.884a.382.382 0 0 1-.136-.528l2.978-4.993c1.25-2.096 3.96-2.816 6.054-1.585Zm60.886 1.572c.115 0 .2.086.2.181v.28c0 .096-.085.184-.2.184h-2.662v1.773h1.216c1.583 0 2.423.763 2.423 2.025C77 33.998 75.983 35 74.568 35c-1.164 0-1.762-.51-2.025-.8-.136-.144-.145-.21-.02-.327.083-.068.157-.145.24-.212.094-.078.18-.097.264.01.103.134.608.713 1.55.713 1.007 0 1.645-.82 1.645-1.582 0-.751-.524-1.388-1.645-1.388h-1.592c-.21 0-.327-.183-.327-.337v-2.546c0-.095.084-.181.199-.181h3.166Zm-5.288 0c.1 0 .178.09.178.185v6.28a.184.184 0 0 1-.178.185h-.36a.187.187 0 0 1-.19-.186v-5.251l-.717.547c-.079.059-.159.069-.228-.009l-.191-.206c-.07-.076-.03-.166.02-.214l1.396-1.331h.27Zm-11.095 0c1.419 0 2.143.878 2.143 1.862 0 .847-.555 1.472-1.24 2.187-.633.655-1.268 1.32-1.903 1.975h2.915c.1 0 .188.088.188.183v.26c0 .097-.089.183-.188.183h-3.769a.185.185 0 0 1-.188-.183v-.288c.814-.85 1.616-1.707 2.43-2.556.674-.712 1.002-1.29 1.002-1.743 0-.55-.368-1.223-1.39-1.223-.614 0-1.1.404-1.408.722a.184.184 0 0 1-.267 0l-.199-.184c-.058-.066-.08-.173-.01-.25 0 0 .705-.945 1.884-.945Zm5.757 0c1.578 0 2.473 1.245 2.473 3.327 0 2.079-.895 3.323-2.473 3.323-1.577 0-2.473-1.244-2.473-3.323 0-2.082.896-3.327 2.473-3.327Zm-12.136 6.315c.088 0 .152.029.152.068v.187c0 .037-.064.065-.152.065h-5.023c-.088 0-.151-.028-.151-.065v-.187c0-.04.063-.068.151-.068h5.023Zm-42.181-4.87L9.382 32.64l3.5 2.056 1.7-2.845c.55-.924.22-2.204-.764-2.783-.934-.55-2.186-.2-2.738.725ZM46.365 28c.114 0 .2.085.2.182v.275c0 .093-.086.18-.2.18h-3.551v2.318h3.031c.108 0 .203.086.203.18v.277c0 .103-.095.18-.203.18h-3.031v2.423h3.55c.115 0 .201.085.201.18v.275c0 .095-.086.18-.2.18H42.2c-.116 0-.201-.085-.201-.18v-6.288c0-.097.085-.182.2-.182h4.165Zm19.032.968c-1.119 0-1.75.989-1.75 2.71 0 1.737.631 2.705 1.75 2.705 1.12 0 1.75-.968 1.75-2.706 0-1.72-.63-2.71-1.75-2.71Zm35.779-13.9.35.378-.813 12.492.012.015 6.228-5.808a.39.39 0 0 1 .554.019l1.294 1.388c.14.149.13.412-.02.552l-10.147 9.468c-.15.14-.398.118-.538-.033l-.337-.362 1.043-12.764-.015-.014-6.482 6.05a.392.392 0 0 1-.555-.02l-1.279-1.371a.408.408 0 0 1 .02-.555l10.146-9.468c.151-.14.397-.119.539.032ZM54.033 28c.083 0 .14.059.14.124v.188c0 .066-.057.124-.14.124h-1.289v3.992c0 .063-.067.122-.142.122h-.281c-.074 0-.14-.059-.14-.122v-3.992H50.89c-.081 0-.14-.058-.14-.124v-.188c0-.065.059-.124.14-.124h3.143Zm-5.177 0c.68 0 1.186.321 1.186.321.042.02.126.095.042.216-.028.036-.056.084-.083.12-.064.088-.13.113-.242.057-.05-.025-.487-.29-.91-.29-.735 0-.959.43-.959.695 0 .422.355.67.939.891.936.346 1.54.67 1.54 1.403 0 .656-.688 1.137-1.5 1.137a2.376 2.376 0 0 1-1.464-.512c-.054-.045-.123-.096-.04-.215.034-.038.068-.083.104-.12.069-.082.145-.133.242-.056.049.037.554.479 1.173.479.563 0 .93-.322.93-.696 0-.435-.416-.694-1.215-.997-.763-.303-1.221-.589-1.221-1.309 0-.429.375-1.124 1.478-1.124ZM28.614 14.205c1.226 1.42 1.274 3.38.386 5.066l5.513 2.11c.282.108.386.448.122.67l-1.634 1.388a.353.353 0 0 1-.368.07l-5.598-2.33-1.727 1.463 3.395 3.932a.393.393 0 0 1-.043.543l-1.432 1.213a.392.392 0 0 1-.55-.042l-8.812-10.205a.383.383 0 0 1 .043-.545l4.45-3.771c1.867-1.583 4.67-1.395 6.255.438Zm62.199-5.58 1.642.964a.39.39 0 0 1 .134.524L85.55 21.501a.408.408 0 0 1-.536.13l-1.642-.964a.39.39 0 0 1-.134-.524l7.038-11.387a.41.41 0 0 1 .536-.13Zm-67.028 7.137-2.536 2.15 2.65 3.068 2.536-2.15c.826-.7.927-2.016.182-2.878-.705-.818-2.007-.889-2.832-.19Zm11.652-9.966 6.12 12.249a.397.397 0 0 1-.187.521l-1.778.834a.423.423 0 0 1-.537-.182l-6.122-12.25a.398.398 0 0 1 .187-.52l1.778-.834a.426.426 0 0 1 .539.182Zm39.878-3.944 7.977 2.502a.388.388 0 0 1 .256.488l-.508 1.596a.388.388 0 0 1-.489.253l-5.803-1.819-1.163 3.66 4.841 1.518a.4.4 0 0 1 .254.487l-.506 1.597a.405.405 0 0 1-.49.253l-4.842-1.518-1.566 4.926a.403.403 0 0 1-.49.253l-1.804-.565a.385.385 0 0 1-.254-.486l4.096-12.892a.392.392 0 0 1 .49-.253ZM56.173.322l2.306 13.524c.034.202-.12.393-.32.427l-.48.082-9.951-7.788-.02.004 1.472 8.641c.034.2-.095.41-.315.446l-1.826.314a.4.4 0 0 1-.445-.318L44.287 2.13c-.033-.202.12-.392.32-.428l.502-.085 9.853 7.452.02-.003L53.567.768a.388.388 0 0 1 .315-.448l1.843-.315a.4.4 0 0 1 .448.316Z" fill="#032733" fill-rule="evenodd"/></svg>