<?xml version="1.0" encoding="UTF-8"?>
<svg width="150px" height="38px" viewBox="0 0 150 38" version="1.1" xmlns="http://www.w3.org/2000/svg" xmlns:xlink="http://www.w3.org/1999/xlink">
    <!-- Generator: Sketch 59.1 (86144) - https://sketch.com -->
    <title>logo</title>
    <desc>Created with Sketch.</desc>
    <g id="design" stroke="none" stroke-width="1" fill="none" fill-rule="evenodd">
        <g id="1920-home" transform="translate(-30.000000, -14.000000)" fill="#1A1919">
            <g id="logo" transform="translate(30.000000, 14.000000)">
                <g id="NALATA_NALATA_HANDWRITTEN_FIRST_SURFACE_WHITE_x2-(4)">
                    <path d="M139.41121,16.8065299 L139.41121,16.2898213 C138.860119,15.7506185 138.348066,15.9418205 137.710082,16.2898213 C137.616491,16.341426 137.473737,16.5688506 137.369856,16.6343488 C137.230369,16.722176 136.999087,16.6962083 136.8596,16.8065299 C136.500591,17.0906865 136.024308,17.7625399 135.838923,18.0122934 C135.707929,18.1897672 135.621198,18.3500395 135.498698,18.5291673 C135.328667,18.7789208 134.998568,19.0149461 134.988441,19.2182223 C134.966228,19.6452842 134.367444,20.1983807 134.478021,20.5961668 C134.968024,20.6014596 135.478281,20.3034094 135.838923,20.0794583 C136.008954,19.9744295 136.175719,19.6798527 136.34918,19.5627498 C136.599245,19.3938767 136.837386,19.3801485 137.029631,19.2182223 C137.233799,19.0458758 137.34944,18.7220233 137.540051,18.5291673 C138.179668,17.8814622 138.795439,17.3629343 139.41121,16.8065299 M135.328667,22.4911507 C134.935684,22.6117271 134.699176,22.6840067 134.137795,22.3188043 C133.748243,22.0655774 132.722503,21.2078148 132.606862,20.5961668 C132.516702,20.1208082 132.615356,19.7159099 132.776893,19.2182223 C132.812664,19.1113741 132.870484,18.8460731 132.947088,18.7013484 C133.001478,18.5979736 133.24648,18.4446481 133.287313,18.3568209 C133.399524,18.1156682 133.334844,17.910738 133.457344,17.6677659 C133.518595,17.5471895 133.734686,17.4266132 133.79757,17.3232384 C133.967764,17.0442092 134.086835,16.7531058 134.30799,16.4620024 C134.381164,16.363755 134.467894,16.4912781 134.478021,16.2898213 C134.484881,16.172553 135.104082,15.4302393 135.328667,15.2562389 C135.563378,15.0752917 135.869467,14.9960652 136.179149,14.739365 C136.454694,14.5121058 136.869726,14.1262284 137.710082,14.2226564 C138.349699,14.2949361 139.157715,15.1717197 139.751435,15.7729474 C139.926693,15.9504212 139.945313,15.8228981 140.091661,15.6007664 C140.154544,15.504173 140.251565,15.6282227 140.261692,15.4284199 C140.270185,15.2544195 140.52368,15.0822384 140.601917,14.9117114 C140.630827,14.8496865 140.55259,14.6085338 140.601917,14.5671839 C140.955863,14.2742611 141.119034,13.5663506 141.452563,13.0168929 C142.284261,13.2080949 142.461316,14.0623842 143.153527,14.3948375 L143.153527,14.9117114 C142.672181,15.3802886 142.451026,16.0227009 142.133014,16.6343488 C142.09218,16.7135753 142.003653,16.6429496 141.962819,16.8065299 C141.860735,17.2165556 141.518876,17.7676673 141.282368,18.3568209 C140.792528,19.5816053 140.363776,20.9046372 140.091661,22.3188043 C139.941883,22.7065011 140.455733,22.6944269 140.601917,22.8356782 C140.748265,22.9769295 140.804452,23.2008806 140.942143,23.3523867 C141.194004,23.629762 141.760448,23.7452109 141.622594,24.3859692 C141.268811,24.3153435 141.076567,24.659871 140.942143,24.7304967 C139.941883,25.255806 139.065921,23.9691621 138.390533,23.1802057 C138.351496,22.2792737 138.393963,21.4610416 138.560727,20.7685133 C138.50111,20.5273606 138.261335,20.7529657 138.220502,20.9406943 C137.429473,21.4471481 136.864663,21.9105979 135.838923,22.3188043 C135.789596,22.3394792 135.80495,22.4565822 135.668892,22.4911507 C135.563378,22.5186071 135.432384,22.4584016 135.328667,22.4911507" id="Fill-1"></path>
                    <path d="M111.869671,24.5415448 C111.993871,24.267504 112.153861,23.8717404 112.380199,23.5136451 C112.417786,23.4554155 112.494267,23.0459992 112.550484,22.9997775 C112.570912,22.9826705 112.710474,23.0203388 112.720606,22.9997775 C112.749531,22.9380936 112.671253,22.6982668 112.720606,22.6571442 C112.887459,22.5201238 112.940244,22.5063067 113.061013,22.314511 C114.112956,20.6544752 116.066821,17.6855903 117.486298,17.0037782 C118.172178,17.1699133 118.444437,17.7523734 118.847925,18.2029122 C119.169538,18.2183743 119.048606,17.8637333 119.188168,17.6890446 C119.304034,17.5434707 119.586426,17.4903404 119.698859,17.3464114 C119.746415,17.2865369 119.642643,17.0499999 119.698859,17.0037782 C119.772072,16.9439037 119.979617,16.904426 120.039266,16.8325438 C120.384739,16.4144095 120.316592,16.2466295 120.890201,16.6611449 C121.21018,16.8924182 121.979567,17.538207 122.081542,18.0316779 C122.148055,18.3537498 121.885927,19.102345 121.741299,19.744844 C121.683285,20.0034227 121.649293,20.3049334 121.571014,20.6013448 C121.499599,20.8753856 121.465444,21.2249275 121.400892,21.4578457 C121.387165,21.5058768 121.239105,21.4698535 121.230607,21.6292445 C121.227176,21.6943827 121.27326,22.1072533 121.230607,22.1431121 C120.932854,22.3882026 120.631505,24.0738989 120.549794,24.5415448 C120.948052,24.9527704 121.433086,24.0242229 121.741299,23.6850439 C121.873997,23.5393056 121.967638,23.5307521 122.081542,23.3424107 C122.342036,22.9175323 122.86286,22.365832 123.273047,21.8004789 C123.368322,21.6703671 123.536809,21.5675607 123.613454,21.4578457 C123.655943,21.3963263 123.557237,21.1615987 123.613454,21.1153769 C123.638947,21.0948157 123.766579,21.1410374 123.783575,21.1153769 C123.865286,20.9901998 123.851722,20.7401746 123.95386,20.6013448 C124.00828,20.5276532 124.251614,20.5003478 124.294267,20.4301105 C124.33169,20.3666172 124.241482,20.1318896 124.294267,20.0874772 C124.314695,20.0703703 124.454256,20.1080385 124.464388,20.0874772 C124.493314,20.0257934 124.415035,19.7859666 124.464388,19.744844 C124.486614,19.7259276 124.620946,19.7686951 124.634673,19.744844 C124.772438,19.5032078 124.840584,19.1314598 124.97508,18.8881787 C125.0362,18.7768188 125.260904,18.6432527 125.315323,18.5455455 C125.349478,18.4822167 125.262702,18.2458442 125.315323,18.2029122 C125.50767,18.0436856 125.728943,17.4182936 125.996136,17.0037782 C126.057419,16.9095252 126.156126,17.031248 126.166421,16.8325438 C126.168056,16.7914212 126.149426,16.6971683 126.166421,16.6611449 C126.205479,16.5807092 126.488035,16.3785506 126.506828,16.3185117 C126.552749,16.1660292 126.448977,15.9536723 126.506828,15.8046441 C126.54082,15.7172998 126.828441,15.5253396 126.847235,15.4620109 C126.893156,15.3095284 126.789384,15.097007 126.847235,14.9479788 C126.881226,14.8606344 127.168848,14.6688388 127.187641,14.6053455 C127.233563,14.4512182 127.131424,14.2423155 127.187641,14.0914779 C127.213135,14.0228855 127.349265,14.0965771 127.357763,13.9202436 C127.37149,13.6460383 127.471831,13.6220227 127.528048,13.4062115 C126.865865,13.4080209 126.251564,13.7608525 125.65573,13.9202436 C125.046495,14.0829244 124.364048,13.9595567 123.95386,14.4341112 C123.506249,14.2576131 123.380251,13.7539439 122.93264,13.5776103 C122.803211,13.0806852 122.125829,13.1338156 122.251827,12.3783118 C124.408172,12.3218916 126.016564,11.7136066 128.038576,11.5218109 C128.50498,11.2459608 128.530474,10.6103704 128.719389,10.151278 C128.816462,9.91655041 128.959292,9.69909427 129.059796,9.46601156 C129.087087,9.40432771 129.012077,9.16285599 129.059796,9.12337833 C129.080224,9.10627134 129.219785,9.14393961 129.229917,9.12337833 C129.258843,9.06169448 129.180564,8.82186766 129.229917,8.7807451 C129.371277,8.66428599 129.391705,8.35257693 129.570324,7.92424426 C129.602681,7.84890772 129.730314,7.93444266 129.740609,7.7528454 C129.755971,7.46515192 130.086082,6.95802842 130.251137,6.55371134 C130.349844,6.31043023 130.431554,5.86679997 130.591544,5.52581164 C130.630765,5.44356651 130.751533,5.54291863 130.761829,5.35457727 C130.775393,5.10784187 131.08524,4.98447417 131.102235,4.66931081 C131.122663,4.26663863 131.549846,3.60028855 131.783049,3.12754351 C132.232294,2.21445803 132.695266,1.39727037 133.144512,0.557876523 C133.707988,0.617750981 133.883176,1.07174413 134.165731,1.41437736 C134.506138,1.69878103 134.957181,1.8751146 135.01683,2.44227705 C134.562355,2.53307568 134.402365,2.98016023 134.165731,3.29877788 C132.639049,5.34766868 131.386425,8.29599227 130.081016,10.8365445 C130.387267,11.2494151 130.952378,10.8896748 131.272357,10.8365445 C131.946307,10.7251846 132.290145,10.600172 132.97439,10.4939113 C133.083229,10.4768043 133.209226,10.5213811 133.314797,10.4939113 C135.346941,9.98168856 138.259109,9.51749701 140.803578,9.12337833 C140.95507,9.09936275 141.080904,8.98290364 141.314107,8.95214396 C141.839996,8.88190661 142.141345,8.95888806 142.845855,8.7807451 C143.043268,8.73106904 143.167631,8.647179 143.696953,8.60951073 C143.80236,8.60260214 143.933423,8.63517121 144.037359,8.60951073 C144.234772,8.55983467 144.358973,8.47578014 144.888294,8.43811187 C144.993864,8.43136776 145.124928,8.46393684 145.228701,8.43811187 C145.426114,8.3884358 145.550314,8.30454577 146.079636,8.2668775 C146.185206,8.2599689 146.31627,8.29253798 146.420042,8.2668775 C146.617455,8.21720143 146.741819,8.1333114 147.27114,8.09547863 C147.376547,8.08873453 147.507611,8.12130361 147.611547,8.09547863 C147.706822,8.07162755 147.791964,7.92259936 147.781669,7.92424426 C148.157864,7.8780225 148.683754,8.10929582 148.973173,7.7528454 C149.384995,8.02359639 149.725402,8.36622962 149.99423,8.7807451 C150.024953,8.92648348 149.927881,8.94178107 149.824108,8.95214396 C142.580458,9.82756117 135.951109,11.3196524 129.400202,12.8923439 C128.794236,13.5381327 128.796034,14.7973057 128.208861,15.4620109 C128.084497,15.9862414 128.503183,15.9656801 128.378983,16.4899106 C127.827599,16.9439037 127.621525,17.649567 127.357763,18.3743111 C127.150218,18.941309 127.039582,19.4861008 126.847235,20.2587116 C126.81308,20.3922777 126.687245,20.3906328 126.67695,20.4301105 C126.571543,20.8291639 126.612398,21.3688564 126.506828,21.8004789 C126.50503,21.8039332 126.3622,21.8725257 126.336543,21.9718778 C126.142562,22.754687 125.919655,24.1681519 125.826015,25.2268112 C125.456683,25.1496653 124.968216,24.7864708 124.804795,24.5415448 C124.462754,24.030967 124.569959,24.2536868 124.634673,23.3424107 C124.134277,23.6866888 123.727522,24.6545496 123.102762,25.3980456 C122.958134,25.5710894 122.769219,25.6875485 122.592234,25.9120777 C122.479963,26.0541973 122.387957,26.3111311 122.251827,26.4259453 C122.193976,26.4756214 121.95914,26.3677157 121.911421,26.4259453 C121.727572,26.6521194 121.710576,26.9690922 121.060486,26.9399774 C120.483445,26.9141524 120.391602,26.6366573 119.868981,26.2547109 C119.675,25.7732479 119.198463,25.7064649 119.018046,25.2268112 C118.583999,24.0687997 119.353387,22.3332629 119.528574,21.1153769 C119.486085,20.8839391 119.292104,21.1736065 119.188168,21.2866113 C118.987487,21.5042319 118.900546,21.781727 118.67764,22.1431121 C118.602793,22.2648349 118.415512,22.3761949 118.337233,22.4857454 C118.214667,22.6587891 118.119392,22.8489399 117.996826,22.9997775 C117.741562,23.3149408 117.474369,23.7672891 117.145892,24.1989115 C116.916121,24.5004222 116.679487,24.8035778 116.465079,25.0554124 C116.2693,25.2850408 115.988542,25.500852 115.784265,25.7406788 C115.671995,25.8726 115.714484,26.1227897 115.61398,26.2547109 C115.484714,26.4243004 115.174867,26.6966963 114.933331,26.9399774 C114.841324,27.0324209 114.686401,27.2054647 114.592924,27.2826106 C114.533275,27.3304773 114.298439,27.2242166 114.252517,27.2826106 C114.065236,27.5138839 113.869458,27.8530629 113.401419,27.9677126 C112.793819,27.8941854 112.467139,27.537735 112.210078,27.1112118 C111.119077,26.5955348 111.287564,25.822924 111.869671,24.5415448 M114.763046,23.3424107 C114.747684,23.6268144 113.765685,24.5260827 114.252517,24.5415448 C114.868616,23.7980487 115.634408,23.0048767 116.294794,22.1431121 C116.465079,21.9203923 116.796987,21.6103282 116.805485,21.4578457 C116.815617,21.2644051 116.926253,21.3774099 116.975607,21.2866113 C117.242801,20.8035034 117.38416,20.6613838 117.65642,20.2587116 C117.731267,20.1473517 118.204535,19.8185357 117.826705,19.5734452 C117.339873,20.1868294 116.681285,20.8206104 116.294794,21.2866113 C115.882972,21.7833719 115.345152,22.4344244 115.103452,22.8283786 C115.021741,22.9637541 114.769909,23.1966723 114.763046,23.3424107" id="Fill-3"></path>
                    <path d="M97.2846786,28.1815458 C97.1754302,28.2778166 97.0442339,28.4480655 96.9435026,28.5255114 C96.7951083,28.6389556 96.6126454,28.5856186 96.4318205,28.6974116 C96.3089775,28.7732062 95.9045784,29.2236805 95.5787987,29.2136142 C95.0056952,29.1944525 94.7275786,28.6957603 94.2140949,28.353446 C94.1646301,28.0027102 93.7518776,28.016416 93.7024128,27.6656801 C93.3851503,27.7188519 93.6750598,27.094661 93.5319067,26.977749 C93.5215879,26.9691623 93.3612368,26.9845194 93.3612368,26.977749 C93.3492801,26.5219906 93.7843081,25.6327662 94.2140949,24.7420556 C94.5212024,24.1039938 94.8573008,23.3901373 95.2376228,22.8501627 C95.3059235,22.7538919 95.3979738,22.8777393 95.4082926,22.6782625 C95.4202494,22.4409708 96.3004604,21.5844422 96.6023266,21.3024003 C97.6258545,20.3410142 98.5999177,19.5911594 100.184592,20.4425691 C100.795368,20.139886 100.795368,19.2232501 101.378626,18.8946416 C102.183821,19.1733808 102.564307,19.8784854 103.084506,20.4425691 C103.007688,23.0015868 102.144675,24.7694672 102.060978,27.3217146 C103.231263,26.9174766 103.940804,25.8236563 104.619716,24.9139558 C104.792024,24.6834345 104.976289,24.4598487 105.131562,24.2260248 C105.22869,24.0798848 105.390843,24.0007876 105.472738,23.8820592 C105.515324,23.8201355 105.416394,23.5844952 105.472738,23.5380937 C105.807035,23.2611709 106.161805,22.5750563 106.496266,21.9903314 C106.559325,21.8801898 106.782736,21.744453 106.837442,21.6463659 C106.87151,21.5827909 106.784538,21.3453341 106.837442,21.3024003 C107.146187,21.0479352 107.419063,20.179352 107.6903,19.5825727 C107.727808,19.5000077 108.01264,19.3005308 108.031476,19.2386071 C108.075863,19.0889995 107.968417,18.8654136 108.031476,18.7227414 C108.082579,18.6058294 108.31811,18.476863 108.372652,18.3787759 C108.40672,18.3152009 108.319748,18.0777441 108.372652,18.0348103 C108.512529,17.9195497 108.490254,17.9040275 108.543158,17.6908448 C108.543158,17.6908448 108.698432,17.1870336 108.713828,17.1749791 C109.005539,16.9342197 109.015694,16.2616457 109.22551,15.6270516 C109.245984,15.5669443 109.387663,15.6254003 109.39618,15.4551514 C109.437127,14.67772 110.126195,13.3845879 110.419708,12.531527 C110.457216,12.4232018 110.448699,11.7886076 110.590214,11.6715306 C110.607248,11.6578248 110.754004,11.6888692 110.76072,11.6715306 C111.189032,10.4781369 111.507933,9.23470898 111.954918,8.05997504 C111.97359,8.01192225 112.091355,8.02397673 112.125424,7.88807484 C112.209121,7.54757703 112.379627,7.3755117 112.4666,7.02824357 C112.920464,5.19480656 113.971181,3.06066804 114.684162,1.18082734 C115.653147,1.17917823 115.694095,2.11298768 116.390041,2.38479146 L116.390041,2.90065719 C115.912428,3.26526396 115.927824,3.95484632 115.70769,4.44841952 C115.654785,4.5654966 115.42122,4.69446303 115.366514,4.79238505 C115.332445,4.85612518 115.419418,5.09341681 115.366514,5.13635058 C115.347841,5.15187279 115.204525,5.11570935 115.196007,5.13635058 C115.085121,5.39444858 115.136224,5.74006541 115.025338,5.99634698 C114.989631,6.08056321 114.702998,6.27838881 114.684162,6.34031251 C114.638136,6.4933879 114.743945,6.7100383 114.684162,6.85617824 C114.653533,6.93180773 114.523811,6.84594019 114.513656,7.02824357 C114.510216,7.08141539 114.394252,7.42719735 114.342986,7.54410931 C114.307279,7.62832554 114.020646,7.82615113 114.001973,7.88807484 C113.955785,8.04115023 114.061593,8.25780063 114.001973,8.40394057 C113.971181,8.47973518 113.841622,8.39370252 113.831304,8.5760059 C113.827864,8.63611318 113.7119,8.96637293 113.660798,9.09187164 C113.447542,9.62160828 113.193339,10.0859535 112.978446,10.6397991 C112.877714,10.897732 112.734397,11.2192398 112.63727,11.4996304 C112.553573,11.742041 112.548495,12.1479303 112.4666,12.3594616 C112.432531,12.4471456 112.14426,12.6398522 112.125424,12.7034272 C112.079399,12.8565026 112.185207,13.0731529 112.125424,13.219458 C112.094795,13.2950875 111.965073,13.2090548 111.954918,13.3913582 C111.939521,13.6699323 111.606863,14.2133747 111.443072,14.595155 C111.415883,14.6570787 111.490899,14.8996545 111.443072,14.9391205 C111.422598,14.9564592 111.282721,14.9184793 111.272566,14.9391205 C111.243575,15.0010443 111.322031,15.2418036 111.272566,15.2830861 C111.132689,15.3983467 111.1548,15.4138689 111.101896,15.6270516 C111.101896,15.6270516 110.944984,16.131028 110.93139,16.1430825 C110.849494,16.2101252 110.504879,16.8326648 110.419708,17.1749791 C110.310459,17.6152153 110.110799,18.0589193 109.907862,18.5506761 C109.496747,19.5482257 109.082193,20.593828 108.713828,21.6463659 C108.700069,21.6858319 108.575589,21.6892996 108.543158,21.8182661 C108.432272,22.2654378 108.166276,22.9946513 108.031476,23.5380937 C107.673266,24.9844663 107.190411,26.8469662 106.837442,28.5255114 C106.190796,28.0405249 105.633089,27.7309064 105.98442,26.6337835 C105.191182,27.2718453 104.887678,28.3123287 103.937528,28.8694769 C103.125454,29.3458766 102.410671,29.3131809 101.549296,28.5255114 C101.332601,28.3276858 101.059726,27.9700145 100.866944,27.6656801 C100.761136,27.4970825 100.757696,27.3955276 100.696438,27.1496492 C100.520691,26.4428934 100.477942,24.6456198 100.866944,23.3661935 C100.506932,23.7428548 100.145446,24.3911547 99.6729104,25.085856 C99.5056801,25.3335509 99.3504065,25.6895709 99.1610645,25.9458524 C98.9700846,26.2037853 98.6852526,26.3723829 98.4787126,26.6337835 C98.2826551,26.8831296 98.1938806,27.2322142 97.9670305,27.4936148 C97.8032398,27.6828536 97.4894169,28.0008937 97.2846786,28.1815458 M95.9063801,26.4927626 C97.5013736,25.9664937 98.5044277,23.8184842 99.1764608,22.4133941 C99.2259256,22.3085367 99.1440303,22.2104495 99.0570574,22.1967437 C99.0382215,22.1846893 99.0161098,22.1726348 98.9905584,22.1622316 C98.993998,22.1795702 98.9956359,22.193276 98.9972738,22.2053305 C98.9700846,22.2139172 98.9478091,22.2345585 98.9307748,22.2689055 C98.9256973,22.2793087 98.9206198,22.2895467 98.9153785,22.2999499 C98.8847496,22.3067202 98.8506812,22.3136557 98.8198885,22.3342969 C98.7517516,22.3790471 98.6834509,22.4839046 98.6493825,22.5061971 C98.5060656,22.5956975 98.2808534,22.5681208 98.1375366,22.6782625 C97.8595838,22.8914451 97.3341434,23.5278557 97.1141725,23.710159 C97.0578285,23.7565605 97.1618356,23.9938522 97.1141725,24.0541246 C97.0014845,24.1967968 96.7063337,24.2450147 96.6023266,24.3980901 C96.5494223,24.4753709 96.6416364,24.656023 96.6023266,24.7420556 C96.5749736,24.8038142 96.3004604,24.8417941 96.2611507,24.9139558 C96.1332302,25.1477798 96.2048067,25.3678979 96.0906446,25.6018869 C96.0821275,25.6190604 95.9574828,25.7136798 95.9199747,25.7737871 C95.7665028,26.0163629 95.3827413,26.5477508 95.7494686,26.6337835 C95.785175,26.5890333 95.8194072,26.5426318 95.8551136,26.4962303 C95.8723116,26.4978816 95.8893458,26.4978816 95.9063801,26.4927626" id="Fill-5"></path>
                    <path d="M86.2967911,18.9256175 C86.2634075,19.0057189 85.9908815,19.0312205 85.9624733,19.095792 C85.9223488,19.1860286 86.0125488,19.3529336 85.9624733,19.4363043 C85.9223488,19.5044722 85.6531933,19.5487731 85.6281556,19.6066422 C85.5244738,19.8399169 85.5095474,20.0050237 85.2938379,20.2876669 C85.1200183,20.5157105 84.8041579,20.7251182 84.6252024,20.9686916 C84.5115697,21.1234997 84.566781,21.3347056 84.4581238,21.4793784 C84.3192928,21.6632845 83.9966915,21.8828275 83.7894883,22.1604031 C83.6858065,22.2983736 83.7326719,22.5110508 83.6222492,22.6710899 C83.5805196,22.7307572 83.3113642,22.7886264 83.2879314,22.8414278 C83.1844101,23.0763372 83.1458905,23.2262411 82.9536137,23.5224525 C82.7765842,23.794797 82.6226664,24.1132406 82.4522173,24.3736517 C82.3803141,24.4843223 82.1796914,24.611994 82.1178996,24.714164 C81.9591669,24.9729403 81.8588555,25.2436501 81.6165032,25.5655266 C81.5344887,25.6760338 81.3390019,25.8140042 81.2821855,25.9058755 C81.1534659,26.1136485 81.2470364,26.374223 81.1149464,26.5869002 C81.0346973,26.7145719 80.8759646,26.7657387 80.7806286,26.9274126 C80.6987746,27.0670177 80.615155,27.2066229 80.5299305,27.3480262 C80.43636,27.2713578 80.3511355,27.19142 80.2792323,27.1011834 C80.2341323,27.044949 80.0033359,27.147119 79.9449145,27.1011834 C79.8062441,26.9905128 79.7377114,26.719803 79.6105968,26.5903331 C79.4719264,26.4490932 79.2478709,26.3928588 79.1092004,26.2498208 C79.0873727,26.227752 79.0657054,26.2038851 79.0456432,26.1818164 C79.0657054,26.146016 79.0873727,26.1120138 79.1092004,26.0762134 C79.1592759,25.9961121 79.2512413,25.9501764 79.2762791,25.9058755 C79.4300363,25.6420316 79.5353231,25.3763894 79.7776754,25.0546764 C79.8630605,24.9423711 80.0518063,24.8094682 80.1119932,24.714164 C80.1521177,24.652862 80.0585473,24.4179526 80.1119932,24.3736517 C80.4129273,24.1233759 80.6052041,23.6484895 80.9478678,23.1819402 C81.0314873,23.0678367 81.2236037,22.9367321 81.2821855,22.8414278 C81.410905,22.6336548 81.3171741,22.3732438 81.4492641,22.1604031 C81.5261427,22.0361644 81.6882459,21.9748623 81.7835819,21.8198908 C81.9708832,21.5168135 82.1129241,21.2546043 82.2851387,20.9686916 C82.3419551,20.8750221 82.4422664,20.9941933 82.4522173,20.7983537 C82.4555878,20.7184159 82.5775664,20.5515109 82.6194565,20.4578414 C82.7448055,20.1804293 82.881871,19.9249224 83.1208528,19.6066422 C83.2044724,19.4959716 83.3965887,19.3597994 83.4551705,19.2661299 C83.4935296,19.2048279 83.4017247,18.9699185 83.4551705,18.9256175 C83.6842015,18.7350091 83.725931,18.6106068 83.9565669,18.2445928 C84.1154601,17.9943171 84.4865319,17.7525419 84.4581238,17.3933937 C84.8057629,17.0205139 84.9980397,17.5431341 85.2938379,17.2230558 C85.3524197,16.6970026 85.8671374,16.5268282 86.129552,16.2015187 C86.1764174,16.1420149 86.0727356,15.9071055 86.129552,15.8610064 C86.3319402,15.6924667 86.7147284,15.4830589 86.9654266,15.1801452 C87.013897,15.1221126 86.9086102,14.8872032 86.9654266,14.8396328 C87.3148311,14.548489 87.7661521,14.1517423 88.1354584,13.6477579 C88.6018662,13.0110341 89.5396571,12.0048634 90.3084435,11.2643349 C90.9887953,10.6088118 91.7794094,9.89035202 92.481589,9.90213882 C93.3323899,9.91765186 93.1701263,10.1321272 93.6516208,10.5833102 C93.8889977,10.8062861 94.0979663,10.9100909 94.3202563,11.2643349 C94.8667527,12.1376028 94.5258545,13.5540884 94.1530172,15.0098073 C93.947419,15.8083684 93.7318699,16.6085642 93.4843817,17.3933937 C93.4176145,17.6062344 93.2203622,17.956882 93.150064,18.2445928 C93.0849017,18.5084368 93.0849017,18.6652065 92.9829854,18.9256175 C92.9160576,19.0941573 92.8743281,19.197962 92.8157462,19.4363043 C92.7789922,19.5896412 92.6703349,19.5437055 92.6486676,19.6066422 C92.4214022,20.2638 92.1572222,20.9260254 91.9800322,21.6497163 C91.9148699,21.9135603 91.9148699,22.0701665 91.8129535,22.3305776 C91.6558258,22.732392 91.3564967,23.7011275 91.1443181,24.3736517 C91.0656739,24.6204945 90.8851135,24.9168694 90.8100003,25.2250143 C90.7397021,25.507494 90.7782217,25.7782038 90.6427612,26.2463879 C90.6377857,26.2668219 90.5023253,26.3044205 90.4756826,26.4167258 C90.4105203,26.6805697 90.4105203,26.837176 90.3084435,27.0977505 C90.2232189,27.3138606 90.2700844,27.451831 90.1413648,27.9489496 C90.1296485,27.9916158 89.9824716,27.9625178 89.9741257,28.1192875 C89.9206798,29.1525946 89.1568689,30.9198913 89.4727294,32.2052723 C89.5696703,32.5967879 90.4272121,32.9407332 90.4756826,33.5673217 C89.5881276,33.6524906 89.1316707,32.9373002 88.6370153,32.3756102 C88.5700875,32.2989418 88.3595139,32.2819407 88.3026975,32.2052723 C88.257437,32.1457684 88.3577484,31.9106956 88.3026975,31.8647599 C88.1404338,31.7285877 88.168842,31.6332834 88.1354584,31.3540731 C88.128878,31.3029063 88.1706075,31.0424953 88.1354584,31.0135608 C87.9232798,30.8365205 88.0285666,30.3070344 88.1354584,29.6515114 C88.1922748,29.2974308 88.1789534,29.1321606 88.3026975,28.6299743 C88.3561434,28.412066 88.5099007,27.9592484 88.6370153,27.4382628 C88.6938316,27.2100558 89.0080871,26.5051642 89.1384116,26.0762134 C89.3741835,25.2964516 89.5629293,24.453753 89.8070471,23.692627 C89.8855307,23.4457841 90.0660912,23.1495727 90.1413648,22.8414278 C90.2065271,22.5775839 90.2065271,22.4208142 90.3084435,22.1604031 C90.3753712,21.9918634 90.4171007,21.8880586 90.4756826,21.6497163 C90.6161185,21.0793622 91.0674394,19.91822 91.3113967,19.095792 C91.9365371,16.9950122 92.795684,14.2027456 92.9829854,11.7750217 C92.8610067,11.2097352 92.5634431,11.8976257 92.481589,11.9453596 C92.4196367,11.9809965 92.1890008,11.8925581 92.1472713,11.9453596 C92.0151813,12.1104664 91.9850076,12.156402 91.8129535,12.2857085 C91.6290226,12.4236789 91.5153899,12.6160855 91.3113967,12.7965587 C90.0259666,13.9304011 88.4598253,15.5291581 87.2997443,17.0528814 C87.058997,17.3678921 86.8734611,17.5176325 86.6311088,17.9040805 C86.5810334,17.9841818 86.4890679,18.0301175 86.4638697,18.0744184 C86.3001615,18.3552634 86.4153992,18.6379067 86.2967911,18.9256175" id="Fill-7"></path>
                    <path d="M80.1415946,27.3447618 C80.1903556,27.3716159 80.2393511,27.3983092 80.2904564,27.4235552 C80.0342265,27.5541273 79.8851302,27.755131 79.8389479,27.9677126 C79.7826851,27.9392505 79.7240781,27.9107883 79.6680498,27.8807182 C79.8291019,27.6964379 79.9878097,27.5189114 80.1415946,27.3447618" id="Fill-9"></path>
                    <path d="M80.0196237,27.103009 C80.0973017,27.201567 80.189371,27.2888765 80.2904564,27.3726151 C80.1767136,27.5659816 80.0593297,27.7630976 79.9402118,27.9677126 C79.5393378,27.6607901 79.1492138,27.3224434 78.7556221,26.9171415 C78.6526294,26.8110845 78.5406205,26.6957431 78.4232365,26.5748667 C78.5062896,26.418638 78.5912499,26.2606238 78.6869603,26.0988601 C78.7086339,26.122964 78.7320413,26.1490319 78.7556221,26.1733143 C78.9054297,26.3293644 79.14748,26.3907846 79.2972876,26.5452279 C79.4346112,26.6864586 79.508648,26.9821326 79.6584556,27.103009 C79.7217424,27.1531807 79.9709016,27.0415888 80.0196237,27.103009" id="Fill-11"></path>
                    <path d="M79.6680498,27.3976639 C79.5181674,27.6352479 79.3644685,27.8831544 79.2055654,28.1485426 C79.1151849,28.2993843 79.1295834,28.48136 79.0248045,28.6686635 C78.9616596,28.7813785 78.7213967,28.91657 78.663456,29.0154662 C78.6273732,29.0795656 78.7194885,29.318981 78.663456,29.362269 C78.4231931,29.5512373 78.3420068,29.6639524 78.1215201,30.0558744 C78.0401603,30.2015549 78.0420686,30.3940196 77.9409326,30.5759953 C77.879349,30.685214 77.6300654,30.8292296 77.5795842,30.9227981 C77.4151299,31.2298092 77.3790471,31.6528653 77.2182358,31.9632063 C77.1585603,32.0775863 76.9110115,32.2129442 76.8568873,32.310009 C76.7465572,32.5059701 76.8098756,32.672462 76.6761264,32.8301299 C76.2009783,33.2653399 76.0672291,32.3949199 75.592081,32.310009 C75.3681248,31.947556 75.0664518,31.6580265 74.6887967,31.4430854 C74.8966197,31.0806324 75.0121541,30.7546412 75.2307326,30.4026772 C75.2886733,30.3089422 75.4005646,30.426985 75.4114936,30.2291926 C75.4151365,30.1737507 75.5487123,29.9466557 75.592081,29.8823898 C75.6878392,29.7402057 75.8793557,29.6483021 75.9534295,29.5355871 C76.1595178,29.2252461 76.2750521,28.8403167 76.4955389,28.4953453 C76.5696127,28.379134 76.789926,28.2524336 76.8568873,28.1485426 C76.9470943,28.0096883 76.9290529,27.7930823 77.0374748,27.6282552 C77.0808435,27.5623244 77.3717611,27.5120439 77.3988232,27.4549371 C77.442192,27.3630336 77.3464338,27.1947102 77.3988232,27.1081344 C77.4728971,26.9884266 77.6878326,26.867054 77.7601717,26.7613316 C77.9010334,26.5515518 78.0221189,26.329618 78.1504904,26.0988601 C78.267933,26.2115752 78.3798244,26.319129 78.4828685,26.4180252 C78.8766568,26.7959619 79.2669756,27.1116307 79.6680498,27.3976639" id="Fill-13"></path>
                    <path d="M72.5806695,16.4515166 L72.5806695,16.1147777 C72.1750823,16.0625614 72.2610509,15.5305365 71.7214781,15.6097502 C70.7900137,15.8352667 70.2572061,17.0593603 69.8309931,17.630022 C69.7519547,17.7360713 69.5526263,17.8422823 69.4872835,17.9667609 C69.3928995,18.148629 69.145389,18.9331676 69.143739,18.9769777 C69.1349936,19.1436497 68.9924276,19.0864218 68.9718017,19.1454279 C68.7724732,19.7312857 68.7569626,20.4181814 68.4563199,20.6606722 C68.3342147,20.7583152 68.4218334,21.7197104 68.6280921,21.5024387 C69.0044731,20.9940162 70.3190837,20.330723 70.3466399,19.8187441 C70.3638006,19.4871783 70.8467761,19.4299505 70.8621217,19.1454279 C70.8792824,18.8355247 71.2368526,18.7530778 71.3777685,18.6402387 C71.4343659,18.5948121 71.3347017,18.3641225 71.3777685,18.3034998 C71.4619221,18.1856493 71.6234639,18.1132254 71.7214781,17.9667609 C72.0410966,17.488569 72.3985017,17.0121554 72.5806695,16.4515166 M59.176327,25.2065667 C59.2175787,25.8950789 59.7606167,26.0937597 59.8637461,26.7218109 C59.154051,26.6393641 58.5955024,25.9574799 58.1451983,25.3748553 C57.923594,25.0869379 57.5833495,24.5465067 57.8014888,23.6911607 C57.8290449,23.5851114 57.9734261,23.5278836 57.9734261,23.5228721 C58.0867859,22.840988 58.1004814,22.2231214 58.3171356,21.5024387 C58.3222508,21.4822311 58.4613517,21.4452108 58.4889079,21.33415 C58.609198,20.8627479 58.7123273,20.0982552 59.0045547,19.6504555 C59.1109842,19.4854001 59.1144494,19.3861405 59.176327,19.1454279 C59.3911661,18.3068947 60.2074556,16.6215835 60.5511652,15.7780388 C60.1145567,15.3386455 59.4839,15.7242059 59.0045547,15.7780388 C58.8738692,15.7932349 58.2191215,15.6905805 58.1451983,15.7780388 C57.4234578,16.6417911 55.3303442,14.9850939 55.3956869,14.0943443 C57.4543141,14.2037885 59.1420055,13.9496581 61.066647,13.9260556 C61.4893949,13.8704444 61.4585386,13.4714662 61.5822938,13.2525778 C61.6251957,13.1785373 61.9086777,12.9730667 61.9260034,12.9158389 C61.9705553,12.7743859 61.8588456,12.5436963 61.9260034,12.4108114 C61.9826008,12.2979723 62.2146006,12.1699372 62.2697129,12.0740725 C62.3040344,12.0116715 62.2164157,11.7793653 62.2697129,11.7373336 C62.4036986,11.629506 62.6167226,11.2305277 62.7851948,10.8954054 C62.9191804,10.6310905 62.9965687,10.3061528 63.1289043,10.053639 C63.1873168,9.9425782 63.4176665,9.81292645 63.4726139,9.71690008 C63.5069353,9.65466078 63.4193166,9.42219291 63.4726139,9.38016117 C63.5808585,9.29254116 63.8093931,8.90714242 63.9880957,8.53839473 C64.1102009,8.28410269 64.2166304,7.91373839 64.3318052,7.69646662 C64.3920328,7.58540582 64.6205675,7.45575407 64.6755148,7.35972771 C64.7098362,7.2974884 64.6222175,7.0651822 64.6755148,7.0229888 C64.6979557,7.00455949 64.8335915,7.04659123 64.8474521,7.0229888 C64.9951333,6.76206868 65.0518957,6.42532977 65.1911616,6.18122235 C65.2530392,6.07177816 65.4797588,5.9405098 65.5348712,5.84448344 C65.5691926,5.78224413 65.4815739,5.54977627 65.5348712,5.50774452 C65.6378355,5.42529765 66.0383075,5.04313212 66.050353,4.8342667 C66.0658637,4.54812754 66.3940625,4.2922189 66.5658348,3.99250025 C66.6518035,3.84264093 66.8958488,3.56490812 66.9095444,3.31902243 C66.9164747,3.17595285 67.1707504,2.94687986 67.2532539,2.8139949 C67.4080305,2.56810921 67.6692365,2.08652245 67.940673,1.80377816 C68.7518474,2.0764995 69.1349936,2.76679002 69.6592208,3.31902243 C69.8276929,3.8812778 68.8292356,3.97067608 68.8000294,4.49752779 C68.7930991,4.63057442 68.45962,4.93190967 68.2843826,5.17100561 C68.1898336,5.30065737 67.9492534,5.50095478 67.940673,5.67619481 C67.9339077,5.80907978 67.6004286,6.11057669 67.4251912,6.34967263 C67.3306422,6.47916273 67.090062,6.6796218 67.0814817,6.85470017 C67.0796666,6.88832556 67.1002924,6.99615314 67.0814817,7.0229888 C66.9507961,7.20986838 66.6828248,7.3564945 66.5658348,7.52817799 C66.4112233,7.75369445 66.380367,7.95075865 66.2221253,8.20165581 C65.1738359,9.87015428 64.230491,11.6210996 63.3006766,13.4208664 C63.5792084,13.72398 64.1428722,13.6095243 64.5037425,13.5893167 C64.8954691,13.5657143 65.2838955,13.459665 65.7066434,13.4208664 C65.9335281,13.4006589 66.168993,13.449642 66.3940625,13.4208664 C66.7686284,13.372045 66.9593765,13.3350247 67.5969635,13.2525778 C67.9853899,13.2021397 68.1400015,13.1297158 68.8000294,13.0842892 C68.9064589,13.0774995 69.0387945,13.1095082 69.143739,13.0842892 C69.3430674,13.0353061 69.4684727,12.9528592 70.0029303,12.9158389 C70.1095248,12.9090492 70.2418604,12.941058 70.3466399,12.9158389 C70.7212057,12.8232074 72.0684878,12.5639039 72.924379,12.5791 C73.0859208,13.0943122 73.7612944,13.1061134 73.7835704,13.7576054 C72.8504559,13.6297319 72.3915715,13.9646925 71.5495408,13.9260556 C71.6199988,14.4176654 72.1372957,14.4732766 72.4088972,14.7678221 C72.6219212,15.1197571 72.9088684,15.4008848 73.2680886,15.6097502 C73.4949732,14.7105943 74.0672174,14.1465606 74.4709895,13.4208664 C75.5055833,13.5303106 75.7392332,14.4226768 76.3613095,14.9362724 C76.1826069,19.7110782 76.6862083,23.5801 79.0456432,25.9809207 C78.9545593,26.1275468 78.8738709,26.2706164 78.7948325,26.4120693 C78.286116,25.9086584 77.6656897,25.2772123 77.2206659,24.7013775 C75.6740554,22.699535 75.1085765,20.0343993 74.814699,16.7882556 C74.5036609,17.1165881 74.0739827,17.7748699 73.7835704,18.3034998 C73.7114623,18.4331516 73.7098123,18.65204 73.6117981,18.808689 C73.5705464,18.8759398 73.2938297,18.9197498 73.2680886,18.9769777 C73.2268368,19.0662143 73.3179207,19.2294914 73.2680886,19.3137166 C73.1992806,19.4281722 72.9897218,19.547801 72.924379,19.6504555 C72.852271,19.7615163 72.82983,19.8677272 72.7526067,19.9871944 C72.7009596,20.0662464 72.6064105,20.1118347 72.5806695,20.155483 C72.5050963,20.2801233 72.5085614,20.5158244 72.4088972,20.6606722 C72.3658304,20.7212949 72.0891136,20.7751279 72.0651876,20.8289608 C71.9585931,21.0596504 71.9414324,21.221311 71.7214781,21.5024387 C71.2660588,22.0866799 69.99435,23.5194773 69.143739,23.5228721 C67.9149319,23.5278836 67.6108241,22.4015946 66.7377721,21.6708889 C66.5693,20.0394107 67.1261985,18.8288966 67.5969635,17.630022 C67.6210545,17.5711776 67.5505965,17.3303034 67.5969635,17.2932831 C67.6175893,17.2764704 67.7585053,17.3134907 67.7689008,17.2932831 C67.798107,17.2326604 67.7190686,16.9969593 67.7689008,16.9565442 C68.0180613,16.7562468 68.3360298,15.8992842 68.6280921,15.4412999 C68.6865046,15.3486684 68.789634,15.466519 68.8000294,15.2730113 C68.8171901,14.9429005 69.428871,14.7880297 69.4872835,14.2627946 C67.1176182,14.5220981 64.8129656,14.8470358 62.6132575,15.2730113 C62.2386916,15.3100316 62.2403417,15.7662376 62.0977757,16.1147777 C62.0170872,16.3118419 61.752416,16.8740973 61.5822938,17.2932831 C61.5357619,17.4079004 61.4293324,17.4163068 61.4103566,17.4617334 C61.0684621,18.2832923 60.8415775,19.1386382 60.5511652,19.9871944 C60.4651966,20.2397082 60.3449065,20.6606722 60.2074556,20.9974111 C60.1284173,21.1926971 60.1233021,21.3845881 60.0355184,21.6708889 C60.0063121,21.7635204 59.7691971,22.2063087 59.6918088,22.5126554 C59.4787848,23.3680013 59.4409982,24.3074107 59.176327,25.2065667" id="Fill-15"></path>
                    <path d="M47.6197334,18.4158 C47.6381646,18.0802036 48.7849068,17.4291083 48.3108239,17.2613101 C48.270756,17.1914474 48.1656179,17.1450317 48.0837192,17.2131399 C46.5614611,18.4888528 44.8588977,19.5669403 44.0977686,21.4824238 C44.0476037,21.6069964 44.2045094,21.6932881 44.3046791,21.6368237 C44.2897738,21.6650559 44.2796767,21.6983922 44.2814397,21.7381087 C44.857295,21.6800492 45.0975418,21.110301 45.4498185,20.7415277 C45.618424,20.5654353 45.8120319,20.4092809 45.9505064,20.2430778 C46.302783,19.8227847 47.6013022,18.7646353 47.6197334,18.4158 M56.633399,20.7415277 C56.6633698,20.8826888 56.5681685,20.8976822 56.4663962,20.9075714 C56.2493886,21.4674304 55.8722699,21.7398632 55.46486,22.2365587 C55.2813492,22.4608213 55.0542445,22.7547871 54.7971692,23.067096 C54.6971598,23.1884785 54.5517936,23.2897635 54.463484,23.3993428 C54.2764473,23.6336541 54.1762776,23.9907836 53.9626358,24.2300396 C53.5286207,24.7133367 52.9527655,25.1302801 52.4604116,25.5588673 C52.2551039,25.7367143 52.0363334,26.2466486 51.7927208,26.3895641 C51.4422072,26.5954838 51.1317614,26.4110972 50.7911846,26.7218109 C50.3405013,26.5291301 49.9483171,26.1984783 49.6228058,25.8911142 C49.3573963,25.6403739 48.9083158,25.2317246 48.7881122,24.8943737 C48.5060345,24.0987678 48.8749793,22.7713756 49.1219576,21.9043119 C49.225493,21.5404832 49.1669939,21.5621758 49.2889604,21.0737746 C49.3957012,20.6451873 49.7779486,19.3327885 49.9566512,18.7480468 C49.8981522,18.51549 49.6628737,18.7330535 49.6228058,18.9140905 C48.6897055,20.0470474 46.7683716,22.3994122 45.2828156,23.7315896 C45.1477068,23.8528126 45.0892077,24.1203008 44.9489702,24.2300396 C44.808893,24.3380238 44.6151248,24.286504 44.4482823,24.3960832 C44.3865778,24.4375543 44.3364128,24.7034474 44.2814397,24.72833 C43.9942333,24.8578473 43.9091291,24.9028274 43.4467461,24.8943737 C43.2614723,24.8911836 43.0962324,24.8611969 42.9460581,24.8096771 L42.9460581,20.2430778 C43.0644987,20.0703349 43.1513658,19.9159351 43.2799035,19.7447873 C43.4735114,19.4871883 43.6788191,19.2413927 43.9475943,18.9140905 C44.046001,18.794622 44.1979383,18.6898279 44.2814397,18.5818437 C44.326476,18.5237842 44.2263063,18.294577 44.2814397,18.2495969 C44.5635174,18.0203896 44.9640357,17.676499 45.2828156,17.2530159 C45.6049612,16.8244287 46.2510154,16.1915168 46.7852001,15.7578255 C46.9504399,15.6249587 48.0319516,14.7162644 48.7881122,15.0934914 C48.829943,15.1132698 49.1487229,15.4522158 49.2889604,15.5917818 C49.2955316,15.598481 49.484171,15.9206791 49.455803,15.9240286 C49.8430188,15.8725089 49.8697841,15.4255787 50.1234938,15.0934914 C50.1653247,15.038622 50.4357026,14.9770534 50.4573392,14.9272882 C50.5525404,14.718019 50.5507775,14.5036456 50.7911846,14.2627946 C51.579079,14.5318778 51.9512293,15.2129598 52.4604116,15.7578255 C52.4754771,16.4207241 52.46538,16.7379775 52.2934088,17.4190596 C52.2416411,17.6233842 51.906193,18.1731944 51.7927208,18.5818437 C51.7643528,18.6848833 51.8193259,18.8112104 51.7927208,18.9140905 C51.7560187,19.0603557 51.6792486,19.1981671 51.625718,19.4125405 C51.5890158,19.5586461 51.5122458,19.6966171 51.4588754,19.9108309 C51.4204103,20.0669854 51.3670399,20.3261793 51.2918726,20.5753246 C51.2452336,20.7298839 51.1801634,20.852702 51.12503,21.0737746 C51.0916936,21.2066414 50.969727,21.1983472 50.9580272,21.2398182 C50.672744,22.2580917 50.4474024,23.3063519 50.2904966,24.5622864 C50.8812572,24.3976783 51.3688029,23.9542572 51.7927208,23.5655459 C52.2200045,23.1734851 52.5754865,22.6718451 52.9610996,22.2365587 C53.7138945,21.3876784 54.4601183,20.5038668 55.1310146,19.5785841 C55.8905409,19.7082609 56.0107445,20.4756346 56.633399,20.7415277" id="Fill-17"></path>
                    <path d="M43.5684647,7.35167295 L43.5684647,7.84080625 C43.2759366,7.78209146 43.3833563,8.22237406 43.2572614,8.33009612 C43.1047225,8.46052123 43.0566152,8.47351677 42.9460581,8.65623718 L42.9460581,6.78738472 C43.1311665,6.99938424 43.3225499,7.20496427 43.5684647,7.35167295" id="Fill-19"></path>
                    <path d="M42.9460581,19.8693519 L42.9460581,24.8529585 C42.37184,24.5991653 42.0648323,23.8522336 41.7067888,23.1326307 C41.6461013,22.6339219 42.1033074,22.1101472 42.1198345,21.6822846 C42.1226111,21.5969906 42.2230959,21.4194398 42.2576046,21.3196981 C42.3044093,21.1854906 42.3222586,20.9426638 42.3952424,20.7757312 C42.4282966,20.7014036 42.64857,20.6578863 42.6706502,20.594525 C42.7739117,20.293559 42.7698129,20.2084391 42.9460581,19.8693519" id="Fill-21"></path>
                    <path d="M25.2560972,24.0736872 C25.7460021,23.5690832 26.4478193,22.7546866 26.1934268,21.9866111 C26.1698268,21.913023 26.0884472,21.8719582 26.0205767,21.8873986 C25.9849324,21.7540202 25.7730201,21.7129554 25.7510476,21.8719582 C25.7460021,21.9113804 25.7375386,21.9489958 25.7290751,21.9866111 C25.669668,21.9780696 25.6070058,22.0002446 25.5731519,22.0498508 C25.566316,22.0516577 25.5612705,22.0533003 25.5544346,22.0551071 C25.5137448,22.0670981 25.4849365,22.0961719 25.4680095,22.128531 C24.9815226,22.3714702 24.6459133,22.838623 24.34074,23.3123463 C23.7559466,23.9744747 23.2525327,24.7100269 22.798272,25.4713678 C22.7422829,25.5671309 22.7846003,25.6578019 22.8575163,25.7039587 C22.8474253,25.7809962 22.8677702,25.8494923 22.9439414,25.8990985 C23.0067664,25.8237036 23.0728466,25.7433809 23.1389268,25.6594445 C23.9440961,25.3447241 24.6644679,24.6827599 25.2560972,24.0736872 M42.9460581,6.31810009 L42.9460581,8.27869667 C42.8274067,8.46513075 42.7291002,8.60031599 42.6070309,8.79184209 C42.4883795,8.97827617 42.390073,9.1134614 42.2680037,9.30498751 C42.2307319,9.36329949 42.1545606,9.77214038 42.0985715,9.81829719 C41.8425514,10.0303557 41.8239969,10.1330176 41.590112,10.5026006 C41.4712979,10.6890347 41.3729914,10.8242199 41.2510848,11.015746 C41.2136502,11.0757006 41.0899533,11.169821 41.0814899,11.186904 C40.9696744,11.4178523 41.0425904,11.6453511 40.9120576,11.8712074 C40.8204243,12.032017 40.5102054,12.2166443 40.4034355,12.3843528 C40.364536,12.44595 40.4576342,12.6819903 40.4034355,12.7265045 C40.3526546,12.7675693 40.0932166,12.847892 40.0644082,12.8974982 C39.9338755,13.1166199 40.0203005,13.3508533 39.894976,13.5818016 C39.8559138,13.6537471 39.5829668,13.6913624 39.5559488,13.7529596 C39.4457609,13.9975414 39.5033776,14.1874249 39.3863538,14.437263 C39.3474544,14.5193925 39.2270127,14.4201801 39.2169216,14.6082567 C39.2050402,14.8272141 38.9338835,14.8237647 38.8778944,14.9504084 C38.686327,15.3781391 38.6575186,15.6912169 38.3692722,16.1478572 C38.3320004,16.2061692 38.2558291,16.6150101 38.19984,16.6611669 C37.94382,16.8732254 37.9252654,16.9758873 37.6913806,17.3454703 C37.5912837,17.5044731 37.3455175,18.1324356 37.1827584,18.5429191 C37.1319776,18.6695629 37.0403442,18.6541225 37.0133262,18.7140771 C35.931792,21.1022401 34.902829,23.7709577 34.1316763,26.5832377 C33.7062241,26.6381002 33.5094483,26.1743968 33.284027,25.8990985 C33.0789505,25.6492604 32.604345,25.5244235 32.9449998,25.0436372 C32.5263834,25.2644014 32.2840351,25.7759042 31.9279181,26.241086 C31.7941302,26.4156934 31.5975172,26.5303462 31.4194587,26.7543956 C31.2754169,26.9357377 31.2516541,27.2453661 31.0804315,27.438699 C30.7651671,27.7928417 30.3091162,28.1520763 29.8939177,28.4651541 C29.4090583,28.8311234 29.0954216,29.1596416 28.5378089,29.1494575 C28.1343291,29.1407518 27.6935774,28.9337853 27.1817001,28.4651541 C26.9985961,28.2974456 26.7002587,27.921128 26.5036457,27.6096928 C26.398666,27.4421485 26.3952481,27.3411291 26.3342134,27.0965473 C26.2290711,26.6757155 26.1612005,25.6799769 26.3342134,24.7014855 C26.1239287,24.8572031 25.9815145,25.1479417 25.8255913,25.3857889 C25.7290751,25.5311582 25.5679436,25.6098383 25.4865641,25.7279405 C25.4442467,25.7895377 25.5425532,26.0239354 25.4865641,26.0700922 C24.3306489,27.0246019 23.554288,29.0793189 21.9268598,29.8335967 C21.2014425,29.8815603 21.0624462,29.3375342 20.740346,28.9782996 C19.8249888,28.430824 19.6995015,27.9878172 20.2318866,26.5832377 C20.2589046,26.513099 20.3928553,26.588494 20.4013188,26.4122439 C20.4031091,26.3660871 20.3843918,26.2821507 20.4013188,26.241086 C20.4470541,26.1247905 20.5521965,26.1180559 20.5709138,26.0700922 C20.6708478,25.822061 20.6216946,25.6338201 20.740346,25.3857889 C20.7810358,25.3020167 20.8996871,25.4028718 20.909941,25.2147951 C20.9184044,25.0641695 21.103136,24.76144 21.2489682,24.5304917 C21.3964279,24.296094 21.7099019,23.6784798 21.9268598,23.3328787 C21.9862669,23.2389225 22.086201,23.3586673 22.0964548,23.1618849 C22.1083362,22.9480196 22.3998378,22.5904275 22.6049142,22.3065878 C22.6744124,22.2106605 22.7642554,22.3356617 22.7745092,22.1354298 C22.7829727,21.9609867 23.0966095,21.6786253 23.2829686,21.4511264 C23.5474522,21.1295071 23.8254447,20.9089072 24.130618,20.5958293 C24.417074,20.301477 24.6118967,19.8790026 24.8085097,19.7403679 C25.0103309,19.5984481 25.2595151,19.6874765 25.4865641,19.5693742 C25.4917723,19.5677316 25.6120513,19.429097 25.656159,19.3982162 C25.7409565,19.3400685 25.8612355,19.4000231 25.8255913,19.2272225 C26.3138686,19.2477549 26.9359338,19.1331021 27.1817001,19.3982162 C27.4343022,19.2528469 27.4274663,18.8474555 27.5207273,18.5429191 C28.1597195,18.4693311 28.2920426,18.9039606 28.5378089,19.2272225 C28.8921354,19.439281 29.1751735,19.7250918 29.3852955,20.0825196 C29.1479927,20.9790458 29.1209747,21.8548753 28.8768361,22.6487395 C28.7954565,22.9138537 28.8581188,22.8333667 28.7072411,22.990727 C28.5750807,23.1293616 28.593798,23.2747309 28.5378089,23.5040366 C28.4886556,23.7024616 28.4056485,23.8683633 28.3682139,24.18834 C28.3615408,24.2395889 28.4038581,24.5014179 28.3682139,24.5304917 C28.0378129,24.8025048 27.9139533,26.1881945 27.8597545,27.0965473 C27.9479699,27.5448104 28.0785027,26.9408297 28.3682139,26.9253894 C28.6056794,26.9133985 28.7938289,26.4720343 29.0462683,26.241086 C29.6193431,25.7159496 30.1904648,25.2113457 30.7414043,24.5304917 C30.8703095,24.3713247 31.1142854,24.1899826 31.2500265,24.0171821 C31.3414971,23.9008866 31.5193928,23.7760497 31.5888909,23.6750304 C31.6313711,23.6134332 31.5330646,23.3791997 31.5888909,23.3328787 C31.7278872,23.2183901 32.0805862,23.1344537 32.0975131,22.8197332 C32.104349,22.6743639 32.3551608,22.4416088 32.4365403,22.3065878 C32.5026205,22.1986696 32.5280109,22.0756395 32.6059726,21.9644361 C32.6873521,21.8463338 32.8654106,21.731681 32.9449998,21.6222844 C33.0229614,21.5145305 33.0348428,21.3964282 33.1145947,21.2801327 C33.1959743,21.1620304 33.37387,21.0473776 33.4536219,20.937981 C33.5807368,20.761731 33.6145907,20.5324253 33.7926491,20.2536776 C33.8536838,20.1595572 33.9519903,20.2809446 33.9620814,20.0825196 C33.9689172,19.9371503 34.219729,19.7045595 34.3011086,19.5693742 C34.4147144,19.3829401 34.4604497,19.1656254 34.6401358,18.8850708 C34.7011704,18.7909504 34.7994769,18.9125021 34.8097307,18.7140771 C34.8164039,18.5685435 35.0673784,18.3359527 35.1485952,18.2007674 C35.2402286,18.0503061 35.4775313,17.8775055 35.4876224,17.687622 C35.5012942,17.4138021 35.811513,17.136697 35.9962446,16.8321606 C36.0657427,16.7193146 36.0895055,16.6115607 36.1656768,16.4900089 C36.231757,16.3840618 36.4521328,16.2437845 36.504704,16.1478572 C36.5387207,16.0846175 36.4521328,15.8485772 36.504704,15.8058698 C36.5268392,15.78698 36.6606272,15.8296874 36.674299,15.8058698 C36.8793754,15.4482777 37.0014448,14.9965652 37.1827584,14.6082567 C37.2218206,14.5261272 37.3420996,14.6253397 37.3523534,14.437263 C37.353981,14.3978408 37.3336361,14.3004352 37.3523534,14.266105 C37.4115977,14.153259 37.6370191,14.0215232 37.6913806,13.9239533 C37.7252345,13.8607136 37.6388094,13.6246732 37.6913806,13.5818016 C37.7149807,13.5630761 37.8473038,13.6057834 37.8608128,13.5818016 C37.8964571,13.5185619 37.8082416,13.2841641 37.8608128,13.2396499 C38.0269899,13.1028221 38.09307,13.1046289 38.19984,12.8974982 C38.3269549,12.6529164 38.4117524,12.2867829 38.5388672,12.0422011 C38.6252923,11.8744926 38.8676406,11.7325727 38.8778944,11.5290557 C38.879522,11.4879909 38.8609675,11.3938704 38.8778944,11.3578977 C38.942347,11.2279688 39.1846953,11.096233 39.2169216,11.015746 C39.2729108,10.8738261 39.1474235,10.6377858 39.2169216,10.5026006 C39.2830018,10.3725074 39.4727789,10.3417909 39.5559488,10.1604489 C39.5847572,10.0988517 39.5067956,9.85936196 39.5559488,9.81829719 C39.5762937,9.80121424 39.7134996,9.84047217 39.725381,9.81829719 C39.8492407,9.57880743 40.2187039,9.08438754 40.2340032,8.79184209 C40.2356308,8.75931879 40.3560726,8.36756084 40.4034355,8.27869667 C40.4628425,8.16568641 40.6882639,8.03395062 40.7424627,7.93654497 C40.7763165,7.87314096 40.6898915,7.63710064 40.7424627,7.59439327 C40.7662255,7.57550348 40.8983859,7.6183751 40.9120576,7.59439327 C40.9475391,7.53098926 40.8594864,7.29675579 40.9120576,7.25224158 C41.3103291,6.92208079 41.6680736,6.11294048 42.0985715,5.54148308 C42.4410166,5.73990807 42.6867828,6.03590296 42.9460581,6.31810009" id="Fill-23"></path>
                    <path d="M18.9369781,15.6955109 C19.3088933,16.0032816 19.3225296,17.3435206 19.2751271,18.2597746 C19.2007765,19.7129448 18.80516,21.3437194 18.4298357,22.8755148 C17.4644147,26.8056239 15.8530527,31.817937 14.8793524,35.5259588 C14.747372,35.6439786 14.5022424,36.4798018 14.8793524,36.5516971 C14.7051642,37.2355226 14.2080868,36.5123024 14.0338987,36.2097843 C13.6957497,35.9259787 13.2476982,35.7498517 13.1886074,35.184046 C13.134549,34.8319563 13.2816268,34.7242776 13.3576007,34.5002205 C13.4438019,34.243827 13.5605226,33.8182006 13.6957497,33.4744822 C13.7634444,33.3052493 13.8056522,33.2010177 13.8649054,32.9616951 C14.0069507,32.3839069 14.4397424,31.2334189 14.7101967,30.3974315 C14.7897421,30.1495734 14.9722094,29.8521438 15.0483457,29.5425675 C15.1616573,29.0878875 15.2106832,28.6263135 15.3864947,28.0040421 C15.3999687,27.9544705 15.5470465,27.9938652 15.5556504,27.8331678 C15.580975,27.3510757 15.5860075,27.3167696 15.7246437,26.8074295 C15.7364944,26.761305 15.8851955,26.795447 15.8936371,26.6363911 C15.919124,26.154299 15.9241565,26.1219626 16.0627927,25.6108169 C16.0746434,25.5645282 16.2233445,25.5988344 16.2317861,25.4397785 C16.267338,24.7577585 16.556461,24.0158259 16.7390907,23.2174276 C17.2749668,20.8821453 18.023992,18.0889003 17.5843821,15.1827238 C16.8743179,15.2322954 16.3095457,15.5417076 15.7246437,15.8663852 C15.5538647,15.9622455 15.5166894,16.1160488 15.3864947,16.208298 C15.3256182,16.2511397 15.0939626,16.1519965 15.0483457,16.208298 C15.0264302,16.2340686 15.0754561,16.3604598 15.0483457,16.3793364 C14.9215601,16.4681385 14.681463,16.4443376 14.5412034,16.5502107 C14.4532165,16.6170175 14.4550022,16.8289279 14.3720477,16.8921235 C13.9442884,17.2255008 13.4321136,17.5298245 13.0194517,17.9178618 C12.8183155,18.1059713 12.7067897,18.4050424 12.5123094,18.6016873 C12.3196148,18.7965267 12.015232,18.9110995 11.8360114,19.1144744 C11.7210764,19.2461182 11.781953,19.5026759 11.667018,19.6274256 C11.4877974,19.822265 11.0869862,20.1556423 10.8215643,20.4821255 C10.3076038,21.1129324 9.81393551,21.820723 9.299975,22.533602 C9.20533224,22.6636044 9.03796229,22.7660305 8.961826,22.8755148 C8.91961825,22.937069 9.0176701,23.171303 8.961826,23.2174276 C8.93650135,23.2379456 8.81133914,23.191821 8.79283267,23.2174276 C8.70825483,23.3439829 8.72676131,23.5900353 8.623677,23.7302146 C8.56620952,23.8071984 8.33293054,23.8277164 8.28552799,23.9012531 C8.1790346,24.0721274 8.20435925,24.2533428 8.11653466,24.4140402 C8.06750874,24.5046479 7.95760625,24.3918807 7.94737899,24.5850786 C7.94575562,24.6226677 7.9660478,24.7234524 7.94737899,24.7559529 C7.88650243,24.8636317 7.66004162,25.0021695 7.60922999,25.0978657 C7.42838602,25.4363314 7.32854846,26.0108368 7.10208765,26.4655168 C7.04462018,26.5800895 6.81799704,26.7099278 6.76393865,26.8074295 C6.73017245,26.8706251 6.81637366,27.1065006 6.76393865,27.1493423 C6.40712083,27.4451305 6.20760805,28.2417232 5.91848497,28.8589061 C5.73082283,29.258926 5.5059854,29.49989 5.41134264,29.8844803 C5.3488427,30.1375909 5.35387516,30.3273418 5.24234931,30.5683058 C5.18991429,30.68452 4.95825869,30.8128809 4.9042003,30.9102185 C4.87027177,30.9735783 4.95647298,31.2094538 4.9042003,31.2521313 C4.62514215,31.4829183 4.31751259,32.3958894 4.05874663,32.9616951 C3.9369935,33.2284298 3.83894166,33.5823251 3.72059762,33.816395 C3.66313015,33.9293263 3.43666934,34.0609701 3.38244862,34.1583077 C3.34868242,34.2216675 3.43488363,34.457543 3.38244862,34.5002205 C3.2438124,34.6147933 3.2658903,34.6302229 3.21345529,34.8421333 C3.21345529,34.8421333 3.05955934,35.3431019 3.04429962,35.3550845 C2.59300138,35.7276922 2.14316418,37.1483619 1.86085928,37.9193481 C1.11524316,38.0457393 1.16767817,37.3653608 0.677418935,37.2355226 C0.572548913,36.772143 -0.0293985202,36.8098962 0.00112092892,36.2097843 C0.175309061,36.2097843 0.119464963,35.9960683 0.170114262,35.8678716 C0.237808997,35.6986387 0.280016746,35.594407 0.339269932,35.3550845 C0.379854306,35.1891345 0.47612044,35.2626712 0.508263265,35.184046 C0.763620145,34.5583276 1.00712639,33.819842 1.35371694,33.1325694 C1.42465843,32.9923901 1.42969089,32.7959093 1.52271027,32.6197824 C1.57855437,32.5137451 1.81524244,32.3701188 1.86085928,32.2778696 C1.97757994,32.0419941 1.90826182,31.8351722 2.03001495,31.5940441 C2.08228762,31.4880068 2.32579386,31.3410976 2.36800161,31.2521313 C2.52693002,30.9171126 2.55241701,30.5152871 2.70615061,30.226393 C2.74511161,30.1530205 3.01735159,30.1170729 3.04429962,30.0555187 C3.08488399,29.964911 2.99527369,29.7991252 3.04429962,29.7136059 C3.10517618,29.6093743 3.33683178,29.4639423 3.38244862,29.3716932 C3.54137703,29.0571925 3.54657183,28.6673496 3.72059762,28.3459549 C3.75955862,28.2742238 4.0317986,28.2366347 4.05874663,28.1750806 C4.099331,28.0844729 4.0097207,27.9185229 4.05874663,27.8331678 C4.12465565,27.7202365 4.33780478,27.5920397 4.39689563,27.4912551 C4.50517474,27.3065926 4.46459036,27.1442538 4.5660513,26.9783038 C4.63017461,26.8740721 4.85517438,26.7304458 4.9042003,26.6363911 C5.02579109,26.4056041 4.95144051,26.1920522 5.07319364,25.9525655 C5.12562865,25.8466924 5.36913489,25.699619 5.41134264,25.6108169 C5.5449464,25.3320997 5.62270606,24.8790612 5.74949164,24.5850786 C5.78325784,24.5064535 5.90842005,24.5970612 5.91848497,24.4140402 C5.93715379,24.0430739 6.11134192,23.9508247 6.25663398,23.5593403 C6.60322453,22.6292982 6.88390606,21.4686332 7.27108099,20.3112511 C7.76994411,19.8923547 7.95582054,20.8855924 8.45468366,20.9950767 C8.70646912,20.5574677 9.01085192,20.1897843 9.299975,19.7982999 C9.45549432,19.588031 9.66507203,19.4701753 9.80711734,19.2855129 C9.85289651,19.2256002 9.75143558,18.9897247 9.80711734,18.9436001 C9.87643545,18.885493 10.091208,18.8410098 10.1452663,18.7727258 C10.4446167,18.3948654 10.6356879,17.9623449 10.99072,17.575949 C11.5452649,16.9707487 12.2671797,16.3827835 13.0194517,15.6955109 C13.200458,15.5297251 13.2900683,15.3639392 13.5267564,15.1827238 C13.6754575,15.0697925 13.95273,14.6833966 14.2030544,14.6697726 C14.4228593,14.6577901 14.4144178,14.4013965 14.5412034,14.3278598 C14.7660408,14.1996631 14.9790276,14.2766468 15.2175014,14.1569855 C15.3019169,14.1159494 15.1988326,13.9962882 15.3864947,13.9859471 C15.6587347,13.9723231 15.9223708,13.5962683 16.5699351,13.6440343 C17.4051615,13.7055885 17.9902258,14.4714862 18.5988291,15.1827238 C18.6665238,15.261349 18.8777249,15.274973 18.9369781,15.3535981 C18.9825949,15.4135108 18.881134,15.6493863 18.9369781,15.6955109" id="Fill-25"></path>
                </g>
            </g>
        </g>
    </g>
</svg>