<svg width="120" height="34" viewBox="0 0 120 34" fill="none" xmlns="http://www.w3.org/2000/svg">
<g clip-path="url(#clip0_0_1)">
<path d="M25.99 6.44001C25.9785 6.36785 25.9431 6.30167 25.8894 6.25214C25.8357 6.20261 25.7668 6.17262 25.694 6.16701C25.572 6.15701 23.179 6.12001 23.179 6.12001C23.179 6.12001 21.177 4.18701 20.979 3.99001C20.781 3.79301 20.395 3.85301 20.245 3.89701L19.239 4.20701C19.1147 3.80121 18.9537 3.40758 18.758 3.03101C18.045 1.67801 17 0.963005 15.74 0.960005H15.735C15.648 0.960005 15.561 0.968005 15.473 0.976005C15.436 0.931472 15.398 0.887793 15.359 0.845005C14.809 0.260005 14.106 -0.0249946 13.261 0.00100542C11.633 0.0470054 10.011 1.21701 8.695 3.29501C7.77 4.75701 7.065 6.59501 6.865 8.01701L3.659 9.00501C2.715 9.30001 2.685 9.32901 2.562 10.214C2.47 10.884 0 29.882 0 29.882L20.7 33.442L29.673 31.224L25.99 6.44001ZM18.203 4.52601L16.596 5.02101C16.584 4.20101 16.486 3.06001 16.102 2.07301C17.338 2.30601 17.947 3.69701 18.203 4.52601ZM15.513 5.35501L12.057 6.41901C12.391 5.14701 13.024 3.88101 13.802 3.05001C14.092 2.74101 14.496 2.39701 14.976 2.20001C15.426 3.13601 15.524 4.46001 15.513 5.35501ZM13.294 1.08001C13.677 1.07101 13.998 1.15501 14.274 1.33501C13.834 1.56201 13.408 1.88901 13.009 2.31501C11.974 3.41901 11.181 5.13201 10.865 6.78501L8.026 7.66001C8.586 5.05701 10.78 1.15201 13.294 1.08001Z" fill="white"/>
<path d="M25.696 6.168C25.573 6.158 23.18 6.121 23.18 6.121C23.18 6.121 21.178 4.188 20.98 3.991C20.9032 3.92011 20.8058 3.87561 20.702 3.864L20.703 33.442L29.674 31.224C29.674 31.224 26.014 6.61 25.991 6.441C25.9794 6.36907 25.944 6.30311 25.8906 6.25363C25.8371 6.20414 25.7686 6.174 25.696 6.168Z" fill="white"/>
<path d="M15.728 10.756L14.686 14.633C14.686 14.633 13.524 14.107 12.146 14.193C10.126 14.32 10.104 15.588 10.125 15.906C10.235 17.64 14.822 18.019 15.079 22.081C15.282 25.276 13.375 27.462 10.628 27.634C7.33 27.841 5.515 25.907 5.515 25.907L6.213 22.951C6.213 22.951 8.041 24.322 9.503 24.231C10.459 24.171 10.8 23.397 10.766 22.851C10.622 20.589 6.886 20.722 6.651 17.006C6.452 13.878 8.517 10.709 13.074 10.423C14.83 10.31 15.728 10.756 15.728 10.756Z" fill="#004D42"/>
<path d="M41.488 18.875C40.456 18.318 39.926 17.849 39.926 17.204C39.926 16.383 40.662 15.855 41.813 15.855C43.151 15.855 44.347 16.412 44.347 16.412L45.29 13.539C45.29 13.539 44.423 12.865 41.87 12.865C38.32 12.865 35.859 14.887 35.859 17.731C35.859 19.343 37.008 20.574 38.541 21.453C39.779 22.156 40.221 22.655 40.221 23.388C40.221 24.15 39.602 24.765 38.453 24.765C36.74 24.765 35.123 23.885 35.123 23.885L34.121 26.759C34.121 26.759 35.615 27.755 38.129 27.755C41.784 27.755 44.407 25.967 44.407 22.743C44.407 21.014 43.081 19.783 41.488 18.875ZM56.047 12.836C54.25 12.836 52.835 13.686 51.745 14.976L51.685 14.946L53.248 6.827H49.18L45.231 27.492H49.3L50.655 20.428C51.185 17.76 52.57 16.12 53.868 16.12C54.781 16.12 55.135 16.735 55.135 17.615C55.135 18.172 55.076 18.846 54.959 19.403L53.426 27.493H57.494L59.085 19.139C59.262 18.259 59.38 17.205 59.38 16.501C59.378 14.214 58.17 12.836 56.049 12.836H56.047ZM68.572 12.836C63.68 12.836 60.438 17.233 60.438 22.128C60.438 25.264 62.383 27.785 66.038 27.785C70.842 27.785 74.084 23.505 74.084 18.493C74.084 15.591 72.374 12.836 68.572 12.836ZM66.568 24.68C65.183 24.68 64.594 23.507 64.594 22.042C64.594 19.726 65.802 15.945 68.013 15.945C69.457 15.945 69.928 17.176 69.928 18.378C69.928 20.869 68.72 24.68 66.568 24.68ZM84.487 12.836C81.742 12.836 80.184 15.24 80.184 15.24H80.126L80.362 13.07H76.766C76.5476 14.8666 76.2725 16.6558 75.941 18.435L73.111 33.237H77.179L78.299 27.257H78.387C78.387 27.257 79.222 27.785 80.774 27.785C85.548 27.785 88.672 22.919 88.672 17.995C88.672 15.269 87.464 12.836 84.487 12.836ZM80.597 24.736C79.541 24.736 78.917 24.151 78.917 24.151L79.594 20.369C80.066 17.849 81.392 16.178 82.807 16.178C84.045 16.178 84.428 17.32 84.428 18.405C84.428 21.015 82.866 24.736 80.597 24.736ZM94.478 7.032C94.1704 7.03024 93.8655 7.08983 93.5811 7.20727C93.2968 7.3247 93.0387 7.49764 92.8219 7.71597C92.6052 7.9343 92.4341 8.19365 92.3187 8.47884C92.2034 8.76404 92.146 9.06937 92.15 9.377C92.15 10.579 92.916 11.4 94.066 11.4H94.125C95.392 11.4 96.482 10.55 96.512 9.055C96.512 7.883 95.716 7.032 94.478 7.032ZM88.791 27.492H92.857L95.629 13.159H91.532L88.791 27.492ZM105.973 13.13H103.143L103.29 12.455C103.526 11.078 104.352 9.846 105.707 9.846C106.431 9.846 107.003 10.052 107.003 10.052L107.799 6.886C107.799 6.886 107.092 6.534 105.589 6.534C104.144 6.534 102.701 6.944 101.61 7.883C100.225 9.055 99.576 10.755 99.253 12.455L99.135 13.13H97.25L96.66 16.178H98.547L96.395 27.493H100.463L102.614 16.179H105.414L105.974 13.129L105.973 13.13ZM115.757 13.16C115.757 13.16 113.215 19.53 112.073 23.008H112.014C111.936 21.888 111.012 13.159 111.012 13.159H106.738L109.185 26.319C109.245 26.612 109.215 26.789 109.097 26.994C108.625 27.903 107.829 28.782 106.886 29.427C106.12 29.984 105.265 30.336 104.588 30.57L105.707 34C106.533 33.824 108.242 33.15 109.686 31.802C111.543 30.072 113.252 27.405 115.02 23.77L120.001 13.158H115.757V13.16Z" fill="white"/>
</g>
<defs>
<clipPath id="clip0_0_1">
<rect width="120" height="34" fill="white"/>
</clipPath>
</defs>
</svg>
